<svg width="25" height="26" viewBox="0 0 25 26" fill="none" xmlns="http://www.w3.org/2000/svg">
<path d="M1 20.066L5.77871 24.0489C6.48146 24.634 7.36704 24.9543 8.28148 24.9542H20.8794C21.7788 24.9542 22.5081 24.2249 22.5081 23.3254C22.5081 21.5266 21.0495 20.066 19.2487 20.066H10.4909M16.1183 1.00196C15.859 1.00196 15.6103 1.10496 15.427 1.2883C15.2436 1.47164 15.1406 1.72031 15.1406 1.9796V4.73068H12.3915C12.1322 4.73068 11.8835 4.83368 11.7002 5.01703C11.5168 5.20037 11.4138 5.44904 11.4138 5.70832V8.88566C11.4138 9.14495 11.5168 9.39361 11.7002 9.57696C11.8835 9.7603 12.1322 9.8633 12.3915 9.8633H15.1406V12.6124C15.1406 12.8717 15.2436 13.1204 15.427 13.3037C15.6103 13.4871 15.859 13.5901 16.1183 13.5901H19.2956C19.5549 13.5901 19.8035 13.4871 19.9869 13.3037C20.1702 13.1204 20.2732 12.8717 20.2732 12.6124V9.8633H23.0224C23.2816 9.8633 23.5303 9.7603 23.7137 9.57696C23.897 9.39361 24 9.14495 24 8.88566V5.70832C24 5.44904 23.897 5.20037 23.7137 5.01703C23.5303 4.83368 23.2816 4.73068 23.0224 4.73068H20.2732V1.97764C20.2732 1.71836 20.1702 1.46969 19.9869 1.28634C19.8035 1.103 19.5549 1 19.2956 1L16.1183 1.00196Z" stroke="#F29E21" stroke-linecap="round" stroke-linejoin="round"/>
<path d="M6.86585 18.1104L8.33231 19.5768C8.52489 19.7694 8.75352 19.9222 9.00513 20.0264C9.25675 20.1306 9.52643 20.1843 9.79878 20.1843C10.0711 20.1843 10.3408 20.1306 10.5924 20.0264C10.844 19.9222 11.0727 19.7694 11.2652 19.5768C11.4578 19.3843 11.6106 19.1556 11.7148 18.904C11.819 18.6524 11.8727 18.3827 11.8727 18.1104C11.8727 17.838 11.819 17.5683 11.7148 17.3167C11.6106 17.0651 11.4578 16.8365 11.2652 16.6439L8.98929 14.368C8.25609 13.6345 7.26158 13.2224 6.22452 13.2222H1" stroke="#F29E21" stroke-linecap="round" stroke-linejoin="round"/>
</svg>
