<?xml version="1.0" encoding="UTF-8" standalone="no"?>
<svg
   xmlns:dc="http://purl.org/dc/elements/1.1/"
   xmlns:cc="http://creativecommons.org/ns#"
   xmlns:rdf="http://www.w3.org/1999/02/22-rdf-syntax-ns#"
   xmlns:svg="http://www.w3.org/2000/svg"
   xmlns="http://www.w3.org/2000/svg"
   xmlns:sodipodi="http://sodipodi.sourceforge.net/DTD/sodipodi-0.dtd"
   xmlns:inkscape="http://www.inkscape.org/namespaces/inkscape"
   version="1.1"
   id="Layer_1"
   x="0px"
   y="0px"
   viewBox="0 0 1800 2702.7332"
   enable-background="new 0 0 1106 1650"
   xml:space="preserve"
   sodipodi:docname="diabetesbloodtest.svg"
   width="1800"
   height="2702.7332"
   inkscape:version="0.92.1 r15371"><metadata
   id="metadata4637"><rdf:RDF><cc:Work
       rdf:about=""><dc:format>image/svg+xml</dc:format><dc:type
         rdf:resource="http://purl.org/dc/dcmitype/StillImage" /><dc:title></dc:title></cc:Work></rdf:RDF></metadata><defs
   id="defs4635" /><sodipodi:namedview
   pagecolor="#ffffff"
   bordercolor="#666666"
   borderopacity="1"
   objecttolerance="10"
   gridtolerance="10"
   guidetolerance="10"
   inkscape:pageopacity="0"
   inkscape:pageshadow="2"
   inkscape:window-width="1366"
   inkscape:window-height="706"
   id="namedview4633"
   showgrid="false"
   inkscape:snap-global="false"
   fit-margin-top="0"
   fit-margin-left="0"
   fit-margin-right="0"
   fit-margin-bottom="0"
   inkscape:zoom="0.085839035"
   inkscape:cx="1606.1935"
   inkscape:cy="2091.6161"
   inkscape:window-x="-8"
   inkscape:window-y="-8"
   inkscape:window-maximized="1"
   inkscape:current-layer="g4626" />
<g
   id="g4630"
   transform="translate(104.8474,819.73883)">
	<g
   id="g4626">
		
		
		<path
   d="m 1198.9795,836.67685 c -39.025,42.871 -192.554,223.21795 -254.62298,194.65195 -50.044,-23.015 -125.228,-15.297 -174.978,50.002 -16.192,21.268 -22.792,44.059 -35.11,79.407 -5.817,16.667 -24.372,13.605 -18.485,-5.929 7.858,-26.105 20.219,-64.292 43.416,-95.431 39.151,-52.561 133.464,-77.77095 192.47,-52.77 27.098,11.48 49.56138,-28.0914 49.79198,-86.71995 l 2.3529,-598.25274 c -18.59838,-87.78565 -129.48575,-74.56092 -130.79304,-4.789 l -2.35284,485.81074 c -0.13855,28.60766 -32.705,53.12 -32.705,0 v -613.067 c 0,-118.530004 -143.056,-126.710004 -143.056,0 v 596.721 c 0,53.12 -37.375,77.254 -37.375,10.012 v -496.383 c 0,-69.48 -142.455,-85.825 -142.455,0 v 502.716 c 0,53.134 -40.186,70.57 -40.186,10.767 v -394.952 c 0,-98.088 -140.525,-120.88 -140.525,37.655 v 824.73595 c 0,126.696 59.524,192.946 119.985,253.406 55.021,55.008 45.108,120.474 45.108,163.331 h 462.642 c 0,-76.051 4.307,-181.802 36.578,-213.78 41.59798,-41.221 101.54198,-125.731 109.00798,-199.49 10.459,-103.541 139.728,-246.527 179.075,-289.85895 39.333,-43.318 62.027,-75.967 63.523,-113.623 2.237,-55.944 -93.586,-107.54 -151.306,-44.17 z"
   id="path4624"
   inkscape:connector-curvature="0"
   sodipodi:nodetypes="cccccccsccssssssssssssscccccccc"
   style="fill:#d7955e;fill-opacity:1" />
	<rect
   style="opacity:1;fill:#dacdc2;fill-opacity:1;stroke:#afb8c0;stroke-width:59.00754166;stroke-linecap:round;stroke-linejoin:bevel;stroke-miterlimit:4;stroke-dasharray:none;stroke-dashoffset:1.21209455;stroke-opacity:1;paint-order:stroke fill markers"
   id="rect5193"
   width="487.26904"
   height="592.80914"
   x="681.97839"
   y="-546.5603"
   ry="146.6087" /><rect
   ry="61.919006"
   y="-470.95444"
   x="760.08044"
   height="250.36816"
   width="324.48038"
   id="rect5195"
   style="opacity:1;fill:#5e85d7;fill-opacity:1;stroke:#526c83;stroke-width:34.27205658;stroke-linecap:round;stroke-linejoin:bevel;stroke-miterlimit:4;stroke-dasharray:none;stroke-dashoffset:1.21209455;stroke-opacity:1;paint-order:stroke fill markers" /><rect
   style="opacity:1;fill:#6e7582;fill-opacity:1;stroke:none;stroke-width:10.44065571;stroke-linecap:round;stroke-linejoin:bevel;stroke-miterlimit:4;stroke-dasharray:none;stroke-dashoffset:1.21209455;stroke-opacity:1;paint-order:stroke fill markers"
   id="rect5197"
   width="133.54445"
   height="56.45689"
   x="774.95129"
   y="-175.73277"
   ry="13.962456" /><rect
   ry="13.962456"
   y="-175.73277"
   x="938.51575"
   height="56.45689"
   width="133.54445"
   id="rect5199"
   style="opacity:1;fill:#6e7582;fill-opacity:1;stroke:none;stroke-width:10.44065571;stroke-linecap:round;stroke-linejoin:bevel;stroke-miterlimit:4;stroke-dasharray:none;stroke-dashoffset:1.21209455;stroke-opacity:1;paint-order:stroke fill markers" /><rect
   ry="17.584532"
   y="5.1310577"
   x="840.54749"
   height="71.102676"
   width="189.51633"
   id="rect5201"
   style="opacity:1;fill:#4b515d;fill-opacity:1;stroke:none;stroke-width:13.95798302;stroke-linecap:round;stroke-linejoin:bevel;stroke-miterlimit:4;stroke-dasharray:none;stroke-dashoffset:1.21209455;stroke-opacity:1;paint-order:stroke fill markers" /><path
   style="fill:#eef0f2;fill-opacity:1;stroke:#c9ced2;stroke-width:4.81733274px;stroke-linecap:round;stroke-linejoin:bevel;stroke-opacity:1"
   d="m 890.59841,16.369015 0.5343,141.873805 c 0,0 6.6628,8.9783 15.1473,-0.3235 9.739,-10.6763 13.9356,-39.8087 29.2459,-39.559 13.4795,0.2196 28.3263,30.8433 36.3494,40.5561 7.7406,9.372 17.2924,-2.1507 17.2924,-2.1507 L 984.71361,4.9581152 Z"
   id="path5203"
   inkscape:connector-curvature="0"
   sodipodi:nodetypes="ccsssccc" /><path
   style="fill:#ffffff;stroke:none;stroke-width:1px;stroke-linecap:butt;stroke-linejoin:miter;stroke-opacity:1"
   d="m 953.12384,131.09645 -44.42617,-5.22661 -26.13305,28.74636 33.97296,65.33261 z"
   id="path5207"
   inkscape:connector-curvature="0" /><rect
   style="opacity:1;fill:#d4d7d9;fill-opacity:1;stroke:none;stroke-width:54.71025848;stroke-linecap:round;stroke-linejoin:bevel;stroke-miterlimit:4;stroke-dasharray:none;stroke-dashoffset:1.21209455;stroke-opacity:1;paint-order:stroke fill markers"
   id="rect5205"
   width="95.566772"
   height="26.595528"
   x="888.76953"
   y="4.7589874"
   ry="0" /><g
   aria-label="8.5"
   transform="matrix(0.80354865,0,0,1.2444797,289.34452,72.598846)"
   style="font-style:normal;font-variant:normal;font-weight:normal;font-stretch:normal;font-size:194.46011353px;line-height:1.25;font-family:'OCR A Extended';-inkscape-font-specification:'OCR A Extended';letter-spacing:-0.03038439px;word-spacing:0px;fill:#c5d2ea;fill-opacity:1;stroke:none;stroke-width:1.01281309"
   id="text5211"><path
     d="m 630.1943,-291.51588 v -38.93 q 0,-6.55163 4.74756,-11.20424 4.74756,-4.74757 11.39414,-4.74757 v -47.00085 q 0,-3.3233 2.27883,-5.60213 2.27883,-2.37378 5.69708,-2.37378 h 32.47332 q 3.32329,0 5.60212,2.37378 2.37378,2.27883 2.37378,5.60213 v 47.00085 q 6.45668,0 11.20424,4.65261 4.74757,4.55766 4.74757,11.2992 v 39.11991 q 0,6.55163 -4.74757,11.29919 -4.74756,4.65261 -11.20424,4.65261 H 646.336 q -6.74153,0 -11.48909,-4.93746 -4.65261,-4.93747 -4.65261,-11.20425 z m 32.09351,-93.90676 v 39.02495 h 16.52151 v -39.02495 z m -15.95181,54.97676 v 39.11991 h 48.42513 v -39.11991 z"
     style="letter-spacing:-0.02025626px;fill:#c5d2ea;fill-opacity:1;stroke-width:1.01281309"
     id="path5213"
     inkscape:connector-curvature="0" /><path
     d="m 780.00708,-325.50842 h 16.14171 q 3.22834,0 5.60212,2.37379 2.37378,2.27882 2.37378,5.60212 v 13.57802 q 0,3.3233 -2.37378,5.79203 -2.27883,2.37378 -5.60212,2.37378 h -16.33161 q -3.3233,0 -5.69708,-2.37378 -2.27883,-2.37378 -2.27883,-5.60212 v -13.76793 q 0,-3.3233 2.37378,-5.60212 2.37378,-2.37379 5.79203,-2.37379 z"
     style="letter-spacing:-0.02025626px;fill:#c5d2ea;fill-opacity:1;stroke-width:1.01281309"
     id="path5215"
     inkscape:connector-curvature="0" /><path
     d="m 894.59296,-291.32597 h 36.93602 v -39.11991 h -48.23522 v -70.92857 h 56.21113 q 3.22834,0 5.60212,2.37378 2.37378,2.37379 2.37378,5.60213 0,3.32329 -2.37378,5.69707 -2.27883,2.27883 -5.60212,2.27883 h -40.06942 v 39.02495 h 32.09351 q 6.45669,0 11.20425,4.74757 4.74756,4.74756 4.74756,11.20424 v 39.11991 q 0,6.55163 -4.74756,11.29919 -4.65261,4.65261 -11.20425,4.65261 h -36.93602 q -4.93747,0 -10.53959,-2.37378 l -12.05881,-5.03241 q -4.84251,-1.99398 -4.84251,-7.5961 0,-3.32329 2.18388,-5.60212 2.18388,-2.37378 5.31727,-2.37378 2.37378,0 5.50717,1.42426 l 10.53959,4.46271 q 1.89902,1.13942 3.893,1.13942 z"
     style="letter-spacing:-0.02025626px;fill:#c5d2ea;fill-opacity:1;stroke-width:1.01281309"
     id="path5217"
     inkscape:connector-curvature="0" /></g></g>
	<path
   d="m 941.62136,281.87927 c -0.183,0.773 -1.709,1.811 -2.442,1.709 -0.834,-0.183 -1.994,-1.363 -2.197,-2.238 -6.26,-33.616 -67.455,-70.431 -58.74,-120.165 13.079,-74.222008 124.17404,-68.144008 124.56004,11.496 2.767,35.14 -53.26804,76.173 -61.18104,109.198 z m -33.979,-142.139 c -13.639,15.165 -16.427,40.413 -4.11,56.847 3.479,5.005 11.394,2.299 11.048,-3.784 -0.895,-15.394 0.122,-31.803 3.5,-47.712 1.282,-6.022 -6.328,-9.929 -10.438,-5.351 z"
   id="path4628"
   style="fill:#d41e1e;fill-opacity:1"
   inkscape:connector-curvature="0" />
</g>
</svg>