<svg width="25" height="26" viewBox="0 0 25 26" fill="none" xmlns="http://www.w3.org/2000/svg">
<path d="M24.6 13.0667C24.6 13.2879 24.531 13.5001 24.4083 13.6565C24.2855 13.8129 24.1191 13.9008 23.9455 13.9008H20.8593L16.6767 24.5597C16.6224 24.6984 16.5388 24.8151 16.4353 24.8966C16.3318 24.9781 16.2126 25.0213 16.0909 25.0212H16.0582C15.9313 25.0133 15.8089 24.9585 15.7061 24.8634C15.6032 24.7684 15.5243 24.6373 15.4789 24.4861L9.05564 2.99854L5.3411 13.4115C5.28915 13.5573 5.20537 13.681 5.09974 13.7677C4.99412 13.8545 4.87113 13.9007 4.74546 13.9008H1.25455C1.08096 13.9008 0.914469 13.8129 0.791718 13.6565C0.668967 13.5001 0.600006 13.2879 0.600006 13.0667C0.600006 12.8455 0.668967 12.6334 0.791718 12.477C0.914469 12.3206 1.08096 12.2327 1.25455 12.2327H4.32437L8.51346 0.489489C8.56683 0.339584 8.65381 0.213154 8.76346 0.12612C8.87311 0.0390855 9.00052 -0.00466006 9.12964 0.000393233C9.25876 0.00544653 9.38382 0.0590726 9.48907 0.154517C9.59432 0.249961 9.67505 0.382956 9.7211 0.536751L16.1716 22.116L19.8687 12.6942C19.9231 12.5555 20.0067 12.4389 20.1102 12.3573C20.2136 12.2758 20.3329 12.2327 20.4546 12.2327H23.9455C24.1191 12.2327 24.2855 12.3206 24.4083 12.477C24.531 12.6334 24.6 12.8455 24.6 13.0667Z" fill="#F29E21"/>
</svg>
