<svg width="25" height="26" viewBox="0 0 25 26" fill="none" xmlns="http://www.w3.org/2000/svg">
<path d="M23.1529 0H2.44705C2.01022 0 1.59128 0.214571 1.2824 0.59651C0.973517 0.978449 0.799988 1.49647 0.799988 2.03661V22.9846C0.799988 23.5248 0.973517 24.0428 1.2824 24.4247C1.59128 24.8067 2.01022 25.0212 2.44705 25.0212H23.1529C23.5898 25.0212 24.0087 24.8067 24.3176 24.4247C24.6265 24.0428 24.8 23.5248 24.8 22.9846V2.03661C24.8 1.49647 24.6265 0.978449 24.3176 0.59651C24.0087 0.214571 23.5898 0 23.1529 0ZM23.3882 22.9846C23.3882 23.0618 23.3634 23.1358 23.3193 23.1904C23.2752 23.2449 23.2153 23.2756 23.1529 23.2756H2.44705C2.38464 23.2756 2.32479 23.2449 2.28067 23.1904C2.23654 23.1358 2.21175 23.0618 2.21175 22.9846V2.03661C2.21175 1.95945 2.23654 1.88545 2.28067 1.83088C2.32479 1.77632 2.38464 1.74567 2.44705 1.74567H23.1529C23.2153 1.74567 23.2752 1.77632 23.3193 1.83088C23.3634 1.88545 23.3882 1.95945 23.3882 2.03661V22.9846ZM19.1529 7.8555C19.1529 8.087 19.0786 8.309 18.9462 8.47269C18.8138 8.63638 18.6343 8.72834 18.447 8.72834H7.15293C6.96572 8.72834 6.78617 8.63638 6.6538 8.47269C6.52142 8.309 6.44705 8.087 6.44705 7.8555C6.44705 7.62402 6.52142 7.40201 6.6538 7.23832C6.78617 7.07463 6.96572 6.98267 7.15293 6.98267H18.447C18.6343 6.98267 18.8138 7.07463 18.9462 7.23832C19.0786 7.40201 19.1529 7.62402 19.1529 7.8555ZM19.1529 12.5106C19.1529 12.7421 19.0786 12.9641 18.9462 13.1278C18.8138 13.2915 18.6343 13.3835 18.447 13.3835H7.15293C6.96572 13.3835 6.78617 13.2915 6.6538 13.1278C6.52142 12.9641 6.44705 12.7421 6.44705 12.5106C6.44705 12.2791 6.52142 12.0571 6.6538 11.8934C6.78617 11.7297 6.96572 11.6378 7.15293 11.6378H18.447C18.6343 11.6378 18.8138 11.7297 18.9462 11.8934C19.0786 12.0571 19.1529 12.2791 19.1529 12.5106ZM19.1529 17.1657C19.1529 17.3972 19.0786 17.6192 18.9462 17.7829C18.8138 17.9466 18.6343 18.0386 18.447 18.0386H7.15293C6.96572 18.0386 6.78617 17.9466 6.6538 17.7829C6.52142 17.6192 6.44705 17.3972 6.44705 17.1657C6.44705 16.9342 6.52142 16.7122 6.6538 16.5485C6.78617 16.3849 6.96572 16.2929 7.15293 16.2929H18.447C18.6343 16.2929 18.8138 16.3849 18.9462 16.5485C19.0786 16.7122 19.1529 16.9342 19.1529 17.1657Z" fill="black"/>
</svg>
