<svg width="24" height="27" viewBox="0 0 24 27" fill="none" xmlns="http://www.w3.org/2000/svg">
<path d="M14.7996 3.97432H13.0542V3.32047C13.0542 3.14706 12.9929 2.98075 12.8838 2.85813C12.7747 2.73551 12.6267 2.66663 12.4724 2.66663C12.3181 2.66663 12.1701 2.73551 12.061 2.85813C11.9519 2.98075 11.8906 3.14706 11.8906 3.32047V3.97432H6.07259V3.32047C6.07259 3.14706 6.01129 2.98075 5.90218 2.85813C5.79307 2.73551 5.64509 2.66663 5.49079 2.66663C5.33649 2.66663 5.1885 2.73551 5.0794 2.85813C4.97029 2.98075 4.90899 3.14706 4.90899 3.32047V3.97432H3.1636C2.85499 3.97432 2.55903 4.11209 2.34081 4.35733C2.12259 4.60257 2 4.93519 2 5.28201V18.3589C2 18.7058 2.12259 19.0384 2.34081 19.2836C2.55903 19.5289 2.85499 19.6666 3.1636 19.6666H14.7996C15.1082 19.6666 15.4041 19.5289 15.6223 19.2836C15.8406 19.0384 15.9632 18.7058 15.9632 18.3589V5.28201C15.9632 4.93519 15.8406 4.60257 15.6223 4.35733C15.4041 4.11209 15.1082 3.97432 14.7996 3.97432ZM4.90899 5.28201V5.93586C4.90899 6.10927 4.97029 6.27558 5.0794 6.3982C5.1885 6.52082 5.33649 6.5897 5.49079 6.5897C5.64509 6.5897 5.79307 6.52082 5.90218 6.3982C6.01129 6.27558 6.07259 6.10927 6.07259 5.93586V5.28201H11.8906V5.93586C11.8906 6.10927 11.9519 6.27558 12.061 6.3982C12.1701 6.52082 12.3181 6.5897 12.4724 6.5897C12.6267 6.5897 12.7747 6.52082 12.8838 6.3982C12.9929 6.27558 13.0542 6.10927 13.0542 5.93586V5.28201H14.7996V7.8974H3.1636V5.28201H4.90899ZM14.7996 18.3589H3.1636V9.20509H14.7996V18.3589Z" fill="#091D36"/>
</svg>
