<svg width="24" height="26" viewBox="0 0 24 26" fill="none" xmlns="http://www.w3.org/2000/svg">
<path d="M23.4217 10.1157L13.2089 0.477428L13.1975 0.467215C12.8693 0.166692 12.4405 0 11.9955 0C11.5506 0 11.1218 0.166692 10.7936 0.467215L10.7821 0.477428L0.56938 10.1157C0.388741 10.2839 0.244894 10.4877 0.146902 10.7142C0.0489109 10.9407 -0.00110075 11.1851 1.83753e-05 11.4319V23.234C1.83753e-05 23.708 0.188316 24.1626 0.523487 24.4978C0.858658 24.8329 1.31325 25.0212 1.78725 25.0212H7.91491C8.38891 25.0212 8.8435 24.8329 9.17867 24.4978C9.51384 24.1626 9.70214 23.708 9.70214 23.234V17.1064C9.70214 17.0386 9.72904 16.9737 9.77692 16.9258C9.8248 16.8779 9.88974 16.851 9.95746 16.851H14.0426C14.1103 16.851 14.1752 16.8779 14.2231 16.9258C14.271 16.9737 14.2979 17.0386 14.2979 17.1064V23.234C14.2979 23.708 14.4862 24.1626 14.8214 24.4978C15.1565 24.8329 15.6111 25.0212 16.0851 25.0212H22.2128C22.6868 25.0212 23.1414 24.8329 23.4765 24.4978C23.8117 24.1626 24 23.708 24 23.234V11.4319C24 11.1844 23.9486 10.9397 23.849 10.7131C23.7495 10.4865 23.604 10.2831 23.4217 10.1157ZM22.4681 23.234C22.4681 23.3017 22.4412 23.3667 22.3933 23.4145C22.3454 23.4624 22.2805 23.4893 22.2128 23.4893H16.0851C16.0174 23.4893 15.9525 23.4624 15.9046 23.4145C15.8567 23.3667 15.8298 23.3017 15.8298 23.234V17.1064C15.8298 16.6323 15.6415 16.1778 15.3063 15.8426C14.9712 15.5074 14.5166 15.3191 14.0426 15.3191H9.95746C9.48345 15.3191 9.02886 15.5074 8.69369 15.8426C8.35852 16.1778 8.17023 16.6323 8.17023 17.1064V23.234C8.17023 23.3017 8.14333 23.3667 8.09544 23.4145C8.04756 23.4624 7.98262 23.4893 7.91491 23.4893H1.78725C1.71954 23.4893 1.65459 23.4624 1.60671 23.4145C1.55883 23.3667 1.53193 23.3017 1.53193 23.234V11.4319C1.53185 11.3964 1.5392 11.3612 1.55348 11.3287C1.56777 11.2961 1.58869 11.2669 1.61491 11.243L1.6264 11.2327L11.8315 1.597C11.878 1.55642 11.9376 1.53405 11.9994 1.53405C12.0611 1.53405 12.1207 1.55642 12.1672 1.597L22.3736 11.234L22.3838 11.2442C22.4103 11.2681 22.4314 11.2972 22.446 11.3298C22.4605 11.3623 22.468 11.3975 22.4681 11.4332V23.234Z" fill="black"/>
</svg>
