<svg width="20" height="19" viewBox="0 0 20 19" fill="none" xmlns="http://www.w3.org/2000/svg">
<path d="M8.13927 17.664C8.13927 17.858 8.05351 18.0441 7.90087 18.1813C7.74823 18.3185 7.54121 18.3956 7.32534 18.3956H1.62785C1.19612 18.3956 0.782069 18.2414 0.476787 17.967C0.171505 17.6926 0 17.3204 0 16.9323V2.29947C0 1.91138 0.171505 1.53919 0.476787 1.26477C0.782069 0.990349 1.19612 0.836182 1.62785 0.836182H7.32534C7.54121 0.836182 7.74823 0.913265 7.90087 1.05047C8.05351 1.18768 8.13927 1.37378 8.13927 1.56782C8.13927 1.76187 8.05351 1.94796 7.90087 2.08517C7.74823 2.22238 7.54121 2.29947 7.32534 2.29947H1.62785V16.9323H7.32534C7.54121 16.9323 7.74823 17.0094 7.90087 17.1466C8.05351 17.2838 8.13927 17.4699 8.13927 17.664ZM19.2962 9.09825L15.2265 5.44004C15.0738 5.30275 14.8667 5.22563 14.6507 5.22563C14.4347 5.22563 14.2276 5.30275 14.0748 5.44004C13.9221 5.57733 13.8363 5.76353 13.8363 5.95768C13.8363 6.15183 13.9221 6.33803 14.0748 6.47531L16.7557 8.88424H7.32534C7.10947 8.88424 6.90245 8.96133 6.74981 9.09854C6.59717 9.23575 6.51141 9.42184 6.51141 9.61589C6.51141 9.80993 6.59717 9.99603 6.74981 10.1332C6.90245 10.2704 7.10947 10.3475 7.32534 10.3475H16.7557L14.0748 12.7565C13.9221 12.8937 13.8363 13.0799 13.8363 13.2741C13.8363 13.4682 13.9221 13.6544 14.0748 13.7917C14.2276 13.929 14.4347 14.0061 14.6507 14.0061C14.8667 14.0061 15.0738 13.929 15.2265 13.7917L19.2962 10.1335C19.3718 10.0656 19.4319 9.98488 19.4728 9.89606C19.5138 9.80724 19.5349 9.71204 19.5349 9.61589C19.5349 9.51974 19.5138 9.42453 19.4728 9.33571C19.4319 9.24689 19.3718 9.1662 19.2962 9.09825Z" fill="#F29E21"/>
</svg>
