<svg width="25" height="26" viewBox="0 0 25 26" fill="none" xmlns="http://www.w3.org/2000/svg">
<path d="M22.4358 1.84073C21.3046 0.662094 19.7707 0 18.1714 0C16.5721 0 15.0382 0.662094 13.907 1.84073L1.96657 14.2887C0.835571 15.4677 0.200123 17.0667 0.200012 18.734C0.199902 20.4014 0.835139 22.0005 1.96598 23.1796C3.09682 24.3587 4.63063 25.0211 6.22999 25.0212C7.82935 25.0214 9.36324 24.3591 10.4942 23.1802L22.4358 10.7322C23.5655 9.55238 24.2 7.95347 24.2 6.28645C24.2 4.61943 23.5655 3.02052 22.4358 1.84073ZM9.49548 22.1377C8.62367 23.0099 7.45874 23.4911 6.25054 23.4782C5.04234 23.4653 3.88709 22.9594 3.03257 22.0688C2.17804 21.1783 1.69229 19.9741 1.6795 18.7146C1.66671 17.455 2.1279 16.2404 2.96415 15.3312L8.43673 9.62718L14.9681 16.435L9.49548 22.1377ZM21.4382 9.68973L15.9656 15.3937L9.43431 8.58596L14.9069 2.88317C15.7787 2.01105 16.9436 1.52982 18.1518 1.5427C19.36 1.55558 20.5153 2.06154 21.3698 2.95207C22.2243 3.84261 22.7101 5.04679 22.7229 6.30634C22.7357 7.5659 22.2745 8.78053 21.4382 9.68973ZM19.2901 7.08484C19.4223 7.22281 19.4966 7.40984 19.4966 7.60484C19.4966 7.79984 19.4223 7.98686 19.2901 8.12483L16.4668 11.0682C16.3341 11.2044 16.1552 11.2805 15.969 11.2798C15.7828 11.2791 15.6044 11.2018 15.4727 11.0646C15.3409 10.9274 15.2665 10.7415 15.2656 10.5474C15.2648 10.3533 15.3375 10.1667 15.468 10.0282L18.2914 7.08484C18.3569 7.01643 18.4348 6.96215 18.5205 6.92512C18.6061 6.88809 18.698 6.86903 18.7908 6.86903C18.8835 6.86903 18.9754 6.88809 19.061 6.92512C19.1467 6.96215 19.2246 7.01643 19.2901 7.08484Z" fill="black"/>
</svg>
