<svg width="25" height="26" viewBox="0 0 25 26" fill="none" xmlns="http://www.w3.org/2000/svg">
<path d="M24.29 23.8458C22.4323 20.3624 19.5159 17.9182 16.1272 16.8816C17.7747 15.9728 19.0922 14.4884 19.8671 12.6677C20.6421 10.847 20.8294 8.79614 20.3988 6.84582C19.9682 4.8955 18.9448 3.15939 17.4937 1.91741C16.0425 0.675442 14.2482 0 12.4 0C10.5518 0 8.75752 0.675442 7.30638 1.91741C5.85525 3.15939 4.83187 4.8955 4.40128 6.84582C3.97068 8.79614 4.15796 10.847 4.93292 12.6677C5.70788 14.4884 7.02534 15.9728 8.67288 16.8816C5.28414 17.9169 2.36776 20.3611 0.510065 23.8458C0.459055 23.9329 0.424804 24.0302 0.409372 24.1321C0.39394 24.2339 0.397646 24.338 0.420267 24.4382C0.442889 24.5384 0.483958 24.6327 0.541004 24.7152C0.59805 24.7977 0.669895 24.8669 0.752215 24.9186C0.834536 24.9702 0.925631 25.0032 1.02002 25.0157C1.11441 25.0281 1.21014 25.0197 1.30146 24.9909C1.39278 24.9622 1.4778 24.9137 1.5514 24.8484C1.62499 24.7831 1.68565 24.7022 1.72973 24.6108C3.98693 20.379 7.97492 17.8531 12.4 17.8531C16.8251 17.8531 20.8131 20.379 23.0703 24.6108C23.1144 24.7022 23.1751 24.7831 23.2487 24.8484C23.3223 24.9137 23.4073 24.9622 23.4986 24.9909C23.5899 25.0197 23.6856 25.0281 23.78 25.0157C23.8744 25.0032 23.9655 24.9702 24.0478 24.9186C24.1302 24.8669 24.202 24.7977 24.259 24.7152C24.3161 24.6327 24.3572 24.5384 24.3798 24.4382C24.4024 24.338 24.4061 24.2339 24.3907 24.1321C24.3752 24.0302 24.341 23.9329 24.29 23.8458ZM5.58495 8.92788C5.58495 7.46525 5.98464 6.03546 6.7335 4.81933C7.48235 3.60319 8.54671 2.65533 9.79201 2.0956C11.0373 1.53588 12.4076 1.38943 13.7296 1.67477C15.0516 1.96012 16.2659 2.66444 17.219 3.69868C18.1721 4.73292 18.8212 6.05062 19.0842 7.48515C19.3471 8.91968 19.2122 10.4066 18.6963 11.7579C18.1805 13.1092 17.307 14.2642 16.1863 15.0768C15.0655 15.8894 13.7479 16.3231 12.4 16.3231C10.5932 16.3207 8.86104 15.5408 7.58344 14.1545C6.30584 12.7681 5.58712 10.8885 5.58495 8.92788Z" fill="black"/>
</svg>
